<svg xmlns="http://www.w3.org/2000/svg" width="498" height="394" viewBox="0 0 498 394"><g fill="none" fill-rule="evenodd"><ellipse cx="249" cy="197" fill="#FFF" stroke="#979797" rx="249" ry="197"/><path fill="#193A86" d="M248.631 58.558c22.589 0 44.232 3.014 64.251 8.524-18.848 14.43-40.807 22.705-64.25 22.705-23.444 0-45.405-8.276-64.253-22.705 20.02-5.51 41.664-8.524 64.252-8.524zM136.27 206.422h13.556l-6.7-21.28-6.856 21.28zM108.5 227.448l23.654-61.452h21.878l23.654 61.452h-21.41l-2.524-8.12h-21.41l-2.603 8.12H108.5zm67.53-19.145h21.035c.577 2.222 1.62 3.818 3.149 4.787 1.51.967 3.785 1.451 6.792 1.451 2.51 0 4.504-.399 5.938-1.182 1.45-.798 2.166-1.88 2.166-3.276 0-2.222-3.023-4.017-9.07-5.412-1.215-.271-2.15-.484-2.788-.627-4.955-1.169-8.898-2.237-11.843-3.191-2.93-.955-5.064-1.866-6.404-2.691-2.587-1.697-4.535-3.733-5.828-6.098-1.294-2.365-1.932-5.071-1.932-8.105 0-6.098 2.509-10.883 7.526-14.372 5.018-3.477 11.92-5.214 20.71-5.214 8.648 0 15.442 1.667 20.396 5 4.957 3.333 7.76 8.106 8.4 14.315h-20.475c-.327-1.808-1.216-3.162-2.619-4.045-1.417-.897-3.444-1.339-6.062-1.339-2.305 0-4.018.342-5.156 1.04-1.123.698-1.683 1.752-1.683 3.177 0 2.021 2.944 3.731 8.85 5.084.53.143.919.242 1.184.3.857.184 2.15.484 3.896.868 7.823 1.81 12.934 3.448 15.35 4.93 2.975 1.808 5.157 3.859 6.528 6.168 1.371 2.307 2.056 5.042 2.056 8.176 0 6.794-2.602 12.007-7.79 15.64-5.19 3.647-12.622 5.47-22.316 5.47-8.928 0-16.002-1.823-21.222-5.47-5.22-3.633-8.149-8.76-8.788-15.384zm65.565 19.145v-61.452h21.972v61.452h-21.972zm44.624 0V182.15h-19.353v-16.154h60.302v16.154h-19.353v45.298H286.22zm61.125-21.026h13.557l-6.702-21.28-6.855 21.28zm-27.769 21.026 23.654-61.452h21.878l23.654 61.452h-21.41l-2.525-8.12h-21.409l-2.604 8.12h-21.238zm1.388-157.98c12.007 3.795 23.361 8.51 33.915 14.02-25.2 26-58.606 42.836-95.624 45.558L248.63 99.434l-10.623 29.612c-37.014-2.723-70.422-19.565-95.62-45.562 10.554-5.507 21.906-10.22 33.91-14.016 20.82 17.585 45.658 27.799 72.333 27.799 26.676 0 51.515-10.214 72.333-27.799zm40.024 17.35c11.61 6.599 22.142 14.198 31.367 22.62a171.745 171.745 0 0 1-15.96 16.86c-13.723 12.663-29.654 23.294-47.219 31.366H269.521l-7.654-21.335c38.544-3.429 73.22-21.696 99.121-49.511zm-181.32 75.705c-22.176-8.442-42.12-20.833-58.8-36.226a171.465 171.465 0 0 1-15.96-16.86c9.227-8.422 19.757-16.021 31.369-22.62 25.906 27.818 60.572 46.084 99.118 49.512l-8.519 23.747c-2.218-1.004-4.625-1.825-7.216-2.46-4.281-1.049-9.008-1.575-14.178-1.575-5.226 0-10.038.554-14.44 1.66-4.271 1.077-8.063 2.685-11.374 4.822zm217.497-48.508c22.227 22.127 35.755 49.389 36.81 78.966h-48.376l-11.39-29.589-2.205-5.728H344.984c12.74-7.157 24.48-15.69 34.975-25.375a178.263 178.263 0 0 0 17.206-18.274zm-285.5 78.966H63.287c1.055-29.577 14.583-56.839 36.81-78.966a178.404 178.404 0 0 0 17.205 18.274c10.496 9.686 22.235 18.218 34.976 25.375h-27.021l-2.204 5.728-11.39 29.589zm51.43-29.689a192.1 192.1 0 0 0 10.323 4.59 24.027 24.027 0 0 0-3.054 4.495c-.247.473-.477.953-.692 1.438l-2.527-.004-4.01-10.419-.04-.1zm270.88 37.17c-1.055 29.577-14.583 56.838-36.81 78.967a178.181 178.181 0 0 0-17.206-18.274c-10.494-9.686-22.234-18.219-34.974-25.376h3.119l1.963-6.118.64-2h6.754l.601 1.934 1.924 6.184h42.086l-4.208-10.935-9.386-24.382h45.496zM152.277 235.78c-12.741 7.157-24.48 15.69-34.975 25.376a178.322 178.322 0 0 0-17.206 18.274c-22.226-22.129-35.754-49.39-36.809-78.967h45.497L99.4 224.844l-4.21 10.935h41.839l1.963-6.118.641-2h6.753l.602 1.934 1.922 6.184h3.368zm240.077 48.226c-9.225 8.423-19.756 16.021-31.367 22.62-14.5-15.57-31.75-28.149-50.89-36.808l-12.37-34.038h31.451c17.565 8.074 33.495 18.704 47.216 31.367a171.708 171.708 0 0 1 15.96 16.86zm-129.544-26.807a149.08 149.08 0 0 0-14.18-.674c-4.778 0-9.506.228-14.178.673l14.178-9.306 14.18 9.307zm-75.648 12.618c-19.136 8.659-36.384 21.237-50.886 36.81-11.612-6.599-22.142-14.198-31.37-22.62a171.428 171.428 0 0 1 15.961-16.86c13.721-12.663 29.651-23.293 47.216-31.367h22.913l-.036-.093c2.532.674 5.225 1.159 8.079 1.455l-11.877 32.675zm167.716 40.14c-10.554 5.51-21.908 10.225-33.915 14.02-20.818-17.585-45.657-27.8-72.333-27.8-26.675 0-51.514 10.215-72.333 27.8-12.004-3.795-23.356-8.51-33.91-14.017 12.044-12.425 25.964-22.76 41.256-30.461l-5.275 14.512 41.204-27.046a143.672 143.672 0 0 1 29.058-2.959c9.935 0 19.647 1.018 29.055 2.956l41.207 27.049-5.278-14.52c15.296 7.702 29.217 18.036 41.264 30.466zm-41.997 16.405c-20.02 5.51-41.662 8.525-64.25 8.525-22.589 0-44.233-3.014-64.253-8.525 18.848-14.428 40.809-22.705 64.252-22.705 23.444 0 45.403 8.277 64.251 22.705zM29.596 183.264l3.843 10.301 12.508-.02-10.134 6.346 3.888 10.29-10.105-6.38-10.105 6.38 3.888-10.29-10.134-6.345 12.508.02 3.843-10.302zm438.072 0 3.842 10.301 12.509-.02-10.134 6.346 3.888 10.29-10.105-6.38-10.105 6.38 3.888-10.29-10.134-6.345 12.508.02 3.843-10.302zM48.296 153.867l-1.44 4.63-6.156.533-2.648 8.517 5.036 3.066-1.414 4.547-21.972-13.96 1.412-4.543 27.182-2.79zm-12.176 5.592-10 .835 8.19 4.981 1.81-5.816zm4.33-7.393 1.375-4.186c1.668.29 3.028.192 4.097-.295 1.068-.488 1.884-1.36 2.455-2.612.605-1.324.736-2.434.393-3.327-.343-.893-.948-1.49-1.818-1.787a2.68 2.68 0 0 0-1.624-.066c-.517.148-1.085.526-1.693 1.134-.417.412-1.257 1.391-2.534 2.937-1.644 1.985-3.13 3.266-4.466 3.84-1.875.807-3.75.887-5.626.245a6.56 6.56 0 0 1-2.988-2.038c-.78-.949-1.192-2.07-1.236-3.367-.045-1.297.288-2.724 1.005-4.295 1.166-2.557 2.7-4.262 4.604-5.102 1.905-.847 3.962-.925 6.188-.242l-1.724 4.2c-1.302-.243-2.348-.165-3.144.229-.797.394-1.462 1.169-1.986 2.32-.543 1.19-.683 2.222-.418 3.089.172.559.561.945 1.178 1.155.561.192 1.134.151 1.716-.123.748-.344 1.852-1.427 3.317-3.243 1.458-1.818 2.705-3.104 3.725-3.861a7.626 7.626 0 0 1 3.434-1.435c1.265-.196 2.643-.04 4.134.47 1.353.463 2.476 1.22 3.361 2.277a5.727 5.727 0 0 1 1.377 3.66c.035 1.39-.357 2.972-1.166 4.748-1.179 2.585-2.773 4.336-4.786 5.249-2.007.917-4.39 1.055-7.15.426zm8.38-18.26 2.14-3.936c1.593.519 2.953.613 4.098.281 1.146-.332 2.115-1.077 2.913-2.232.843-1.223 1.18-2.3 1.01-3.23-.172-.928-.658-1.602-1.46-2.018a2.638 2.638 0 0 0-1.59-.29c-.54.072-1.17.365-1.883.88-.49.35-1.501 1.197-3.05 2.542-1.994 1.73-3.7 2.786-5.126 3.165-2.001.534-3.866.35-5.597-.544-1.112-.576-1.971-1.389-2.567-2.431-.594-1.046-.79-2.21-.591-3.495.198-1.287.794-2.649 1.795-4.1 1.629-2.359 3.462-3.825 5.497-4.39 2.04-.567 4.084-.357 6.153.628l-2.487 3.903c-1.24-.42-2.287-.49-3.146-.213-.86.277-1.66.948-2.395 2.012-.757 1.098-1.088 2.096-.988 2.989.065.575.376 1.011.946 1.305.518.269 1.09.308 1.717.119.802-.235 2.094-1.148 3.878-2.735 1.78-1.59 3.251-2.685 4.4-3.289a7.943 7.943 0 0 1 3.656-.936c1.285-.015 2.615.333 3.992 1.044 1.248.646 2.215 1.552 2.891 2.717.676 1.166.904 2.436.674 3.807-.226 1.374-.908 2.881-2.04 4.521-1.646 2.386-3.546 3.89-5.703 4.51-2.152.622-4.53.424-7.136-.584zm7.989-18.966c-2.075-1.342-3.584-2.74-4.533-4.19a9.427 9.427 0 0 1-1.378-3.448c-.225-1.227-.18-2.381.128-3.465.414-1.445 1.239-2.887 2.478-4.323 2.245-2.598 4.971-4.07 8.182-4.425 3.212-.351 6.476.547 9.797 2.697 3.292 2.13 5.2 4.572 5.721 7.318.527 2.75-.333 5.421-2.567 8.007-2.264 2.62-4.99 4.11-8.178 4.457-3.182.35-6.401-.523-9.65-2.628zm3.029-3.753c2.306 1.493 4.455 2.16 6.446 2.01 1.986-.152 3.595-.939 4.82-2.357 1.23-1.423 1.643-2.97 1.254-4.647-.399-1.677-1.778-3.278-4.141-4.807-2.334-1.512-4.461-2.197-6.375-2.05-1.917.141-3.507.947-4.778 2.42-1.268 1.466-1.708 3.029-1.324 4.678.39 1.651 1.753 3.237 4.098 4.753zm28.037-23.459 4.605-2.087c1.427 2.186 1.983 4.237 1.679 6.154-.308 1.914-1.427 3.7-3.365 5.361-2.4 2.056-5.183 3.035-8.353 2.942-3.165-.097-6.156-1.374-8.973-3.837-2.976-2.601-4.511-5.289-4.608-8.059-.097-2.77 1.122-5.24 3.653-7.407 2.211-1.895 4.655-2.865 7.328-2.914 1.589-.037 3.302.398 5.15 1.3l-2.758 3.831c-1.14-.624-2.317-.882-3.53-.772-1.218.115-2.308.588-3.275 1.416-1.34 1.15-1.955 2.496-1.834 4.042.112 1.545 1.234 3.249 3.365 5.11 2.256 1.973 4.278 3.028 6.055 3.161 1.784.135 3.33-.36 4.646-1.488.971-.832 1.505-1.814 1.59-2.946.087-1.133-.366-2.402-1.375-3.807zm11.616 1.743L83.42 72.345l3.984-2.818 16.082 17.025-3.984 2.819zm24.208-16.14-4.449 2.86-5.21-2.886-8.182 5.259 1.755 5.108-4.369 2.808-7.232-22.744 4.364-2.806 23.323 12.4zm-13.56-2.148-8.442-4.713 2.855 8.304 5.587-3.591zm16.77.902-10.991-15.602-6.424 3.39-2.236-3.173 17.21-9.08 2.236 3.171-6.392 3.373 10.991 15.603-4.393 2.318zm11.587-5.877L127.27 46.384l4.615-1.968 11.236 19.724-4.615 1.968zm.783-12.66c-1.042-2.053-1.56-3.912-1.56-5.58a9.08 9.08 0 0 1 .763-3.588 8.549 8.549 0 0 1 2.082-2.961c1.183-1.082 2.72-1.985 4.616-2.705 3.433-1.306 6.643-1.424 9.64-.366 2.995 1.065 5.325 3.237 6.992 6.522 1.653 3.256 1.924 6.196.815 8.809-1.107 2.618-3.375 4.576-6.792 5.875-3.46 1.315-6.68 1.449-9.653.394-2.968-1.053-5.272-3.185-6.903-6.4zm4.772-1.976c1.158 2.282 2.648 3.779 4.465 4.497 1.816.713 3.664.715 5.537.002 1.88-.715 3.12-1.885 3.735-3.51.609-1.63.32-3.611-.867-5.95-1.171-2.31-2.633-3.812-4.384-4.5-1.748-.693-3.59-.67-5.533.069-1.939.737-3.212 1.91-3.814 3.508-.601 1.604-.317 3.564.86 5.884zm24.454 2.885-7.08-21.119 4.784-1.2 14.788 11.632-4.745-14.154 4.568-1.146 7.079 21.119-4.937 1.24-14.543-11.402 4.654 13.884-4.568 1.146zm29.018-18.142c-.392-2.215-.336-4.128.164-5.738.37-1.184.978-2.284 1.809-3.295a9.55 9.55 0 0 1 2.898-2.393c1.466-.78 3.222-1.308 5.267-1.58 3.708-.49 6.842.115 9.421 1.807 2.574 1.7 4.175 4.321 4.802 7.868.622 3.516.006 6.415-1.848 8.69-1.853 2.28-4.63 3.664-8.32 4.153-3.735.496-6.885-.097-9.44-1.784-2.552-1.68-4.139-4.257-4.753-7.728zm5.2-.84c.436 2.465 1.427 4.244 2.969 5.347 1.54 1.095 3.325 1.51 5.347 1.243 2.029-.27 3.578-1.122 4.659-2.556 1.074-1.436 1.388-3.414.942-5.94-.442-2.493-1.403-4.273-2.889-5.328-1.48-1.062-3.267-1.451-5.365-1.174-2.093.277-3.672 1.124-4.733 2.533-1.06 1.415-1.372 3.372-.93 5.876zm22.745 8.39-1.653-21.944 17.424-.983.28 3.708-12.29.694.392 5.21 10.626-.6.279 3.709-10.623.6.7 9.315-5.135.29zm34.859-.64 1.375-18.235-7.509-.424.279-3.708 20.115 1.135-.28 3.708-7.47-.42-1.375 18.233-5.135-.29zm13.597.678 3.845-21.737 5.086.674-1.515 8.56 9.893 1.312 1.515-8.562 5.087.675-3.846 21.737-5.088-.674 1.682-9.502-9.892-1.311-1.682 9.502-5.085-.674zm22.989 3.145 6.011-21.365 18.274 3.85-1.015 3.611-13.276-2.797-1.335 4.745 12.345 2.601-1.017 3.61-12.343-2.6-1.63 5.789 13.758 2.899-1.015 3.61-18.757-3.953zm29.832 7.213 8.138-20.83 4.874 1.424-8.138 20.832-4.874-1.426zm7.292 2.104 10.218-20.133 4.56 1.733 2.727 17.133 6.847-13.493 4.355 1.654-10.218 20.134-4.706-1.788-2.712-16.82-6.717 13.236-4.354-1.656zm33.426-10.944 8.2 3.9c1.85.88 3.183 1.672 3.997 2.38 1.088.95 1.832 2.076 2.22 3.37.394 1.29.437 2.666.14 4.132-.298 1.459-1.02 3.095-2.164 4.898-1.01 1.588-2.103 2.844-3.289 3.774-1.447 1.14-2.96 1.9-4.542 2.274-1.196.29-2.573.3-4.128.04-1.163-.199-2.571-.691-4.23-1.481l-8.445-4.016 12.241-19.27zm2.44 5.401-8.101 12.758 3.343 1.59c1.25.594 2.191.96 2.822 1.103.83.191 1.603.208 2.32.058.72-.147 1.502-.58 2.35-1.299.852-.716 1.752-1.824 2.698-3.314s1.519-2.7 1.721-3.644c.207-.942.175-1.763-.085-2.47-.263-.703-.757-1.337-1.498-1.893-.545-.416-1.733-1.064-3.558-1.932l-2.011-.957zm12.194 14.56c1.544-1.8 3.155-3.11 4.83-3.935a13.151 13.151 0 0 1 3.978-1.204c1.416-.2 2.75-.165 4.004.1 1.67.353 3.34 1.061 5.002 2.13 3.011 1.935 4.718 4.29 5.142 7.068.414 2.779-.612 5.605-3.085 8.486-2.452 2.855-5.267 4.515-8.44 4.975-3.176.464-6.264-.271-9.26-2.197-3.035-1.95-4.764-4.304-5.176-7.063-.414-2.752.585-5.54 3.005-8.36zm4.347 2.609c-1.717 2.002-2.482 3.863-2.303 5.587.183 1.716 1.097 3.107 2.74 4.163 1.648 1.059 3.438 1.413 5.375 1.07 1.935-.35 3.782-1.548 5.542-3.598 1.737-2.026 2.523-3.869 2.346-5.525-.17-1.658-1.105-3.031-2.81-4.127-1.7-1.093-3.506-1.469-5.408-1.131-1.908.343-3.736 1.528-5.482 3.56zm9.379 19.653 17.877-15.627 3.539 3.033-4.55 16.84 11.982-10.474 3.379 2.896-17.877 15.628-3.652-3.13 4.434-16.542-11.752 10.272-3.38-2.896zm16.572 14.152 19.559-14.038 12.006 12.53-3.305 2.372-8.721-9.102-4.344 3.118 8.11 8.463-3.305 2.373-8.11-8.464-5.3 3.803 9.04 9.434-3.306 2.372-12.324-12.86zm19.477 9.41 3.2 3.357c-1.222 1.024-1.903 2.048-2.047 3.086-.143 1.039.222 2.115 1.088 3.233.917 1.182 1.899 1.907 2.942 2.17 1.045.263 1.956.17 2.733-.28.501-.29.825-.663.983-1.12.155-.452.118-1.07-.116-1.85-.155-.53-.608-1.685-1.352-3.472-.955-2.3-1.328-4.086-1.115-5.362.297-1.794 1.287-3.175 2.962-4.148 1.075-.624 2.291-.948 3.636-.97 1.346-.017 2.645.327 3.904 1.032 1.259.706 2.426 1.753 3.513 3.156 1.77 2.284 2.519 4.344 2.237 6.179-.278 1.837-1.372 3.347-3.285 4.544l-3.014-3.614c.968-.79 1.49-1.578 1.568-2.37.079-.79-.281-1.704-1.078-2.732-.823-1.062-1.725-1.748-2.7-2.052-.63-.194-1.218-.137-1.769.183-.5.29-.787.721-.858 1.292-.097.728.304 2.129 1.2 4.203.9 2.072 1.414 3.691 1.556 4.848.14 1.163-.051 2.25-.585 3.26-.533 1.013-1.466 1.906-2.797 2.678-1.208.701-2.568 1.07-4.074 1.102a8.095 8.095 0 0 1-4.264-1.1c-1.34-.764-2.624-1.942-3.852-3.528-1.79-2.308-2.548-4.438-2.274-6.39.269-1.951 1.492-3.727 3.658-5.335zm5.16 20.411 22.478-10.256 2.4 3.939-22.478 10.256-2.4-3.939zm12.427 24.14-2.035-4.46 4.575-3.607-3.74-8.203-6.157.139-1.997-4.381 27.256-.13 1.996 4.375-19.898 16.266zm5.922-10.773 7.452-5.83-10.007.226 2.555 5.604zm-5.89 11.123 24.536-5.716 1.296 4.161-13.725 12.57 16.442-3.83 1.236 3.973-24.536 5.716-1.336-4.295 13.453-12.362-16.129 3.756-1.236-3.973zM30.032 257.51l17.911-6.974-2.872-5.523 3.642-1.42 7.694 14.8-3.643 1.417-2.858-5.496-17.91 6.973-1.964-3.777zm17.18 8.046c2.08-1.052 4.011-1.665 5.79-1.844 1.31-.128 2.618-.05 3.913.226 1.296.277 2.423.727 3.384 1.348 1.282.83 2.411 1.962 3.384 3.401 1.76 2.606 2.23 5.159 1.423 7.67-.816 2.509-2.885 4.605-6.214 6.29-3.301 1.67-6.409 2.202-9.318 1.595-2.913-.605-5.248-2.21-7-4.803-1.775-2.625-2.263-5.186-1.454-7.675.806-2.487 2.835-4.558 6.092-6.208zm2.621 3.606c-2.312 1.17-3.75 2.521-4.322 4.053-.567 1.527-.37 3.005.59 4.427.965 1.427 2.346 2.293 4.15 2.611 1.803.311 3.887-.131 6.257-1.332 2.341-1.184 3.789-2.513 4.334-3.986.555-1.473.333-2.942-.665-4.418-.995-1.472-2.381-2.364-4.153-2.675-1.777-.308-3.84.13-6.19 1.32zm21.311 10.595 3.07 3.179-9.827 7.108c-1.562 1.13-2.532 1.9-2.918 2.309-.613.672-.904 1.424-.866 2.252.04.835.482 1.687 1.329 2.563.858.888 1.718 1.408 2.581 1.552.865.145 1.644.04 2.353-.318.71-.357 1.781-1.052 3.216-2.09l10.038-7.26 3.07 3.177-9.536 6.898c-2.178 1.576-3.8 2.606-4.866 3.085-1.064.478-2.127.714-3.193.703-1.06-.008-2.143-.268-3.251-.77-1.112-.504-2.265-1.372-3.46-2.61-1.443-1.494-2.34-2.77-2.683-3.831-.343-1.06-.412-2.047-.205-2.96.208-.913.592-1.688 1.16-2.34.837-.96 2.274-2.173 4.305-3.643l9.683-7.004zm-.203 30.976 16.636-14.529 7.14 6.124c1.794 1.538 2.948 2.79 3.463 3.747.518.96.636 1.98.361 3.066-.277 1.088-.903 2.06-1.887 2.92-1.25 1.09-2.648 1.676-4.2 1.753-1.551.076-3.165-.422-4.847-1.496.309.995.446 1.917.412 2.765-.03.852-.293 2.19-.78 4.01l-1.199 4.59-4.052-3.476 1.202-5.256c.418-1.874.634-3.097.646-3.669.013-.566-.095-1.06-.33-1.476-.24-.42-.749-.965-1.53-1.635l-.688-.59-6.948 6.068-3.399-2.916zm12.996-5.464 2.509 2.15c1.625 1.395 2.708 2.202 3.249 2.433a2.917 2.917 0 0 0 1.655.198c.563-.092 1.095-.36 1.594-.797.562-.49.859-1.013.906-1.576.044-.559-.165-1.113-.624-1.66-.238-.272-1.043-.996-2.415-2.172l-2.645-2.27-4.229 3.694zm10.806 15.487 3.99 2.113c-.717 1.22-.957 2.3-.72 3.25.238.95.936 1.801 2.09 2.558 1.218.8 2.336 1.178 3.345 1.136 1.011-.042 1.78-.362 2.306-.962.338-.387.493-.8.474-1.243-.024-.438-.274-.973-.75-1.596-.324-.427-1.126-1.323-2.406-2.7-1.645-1.771-2.598-3.244-2.857-4.423-.367-1.655.02-3.129 1.151-4.423.728-.832 1.684-1.436 2.858-1.807 1.179-.368 2.44-.407 3.795-.116 1.354.29 2.748.905 4.194 1.853 2.356 1.544 3.737 3.16 4.132 4.847.398 1.689-.035 3.304-1.3 4.858l-3.915-2.387c.576-.949.758-1.779.55-2.495-.21-.716-.845-1.426-1.905-2.121-1.098-.719-2.13-1.085-3.093-1.096-.622-.007-1.12.199-1.492.624-.338.387-.438.84-.3 1.361.169.666 1.011 1.793 2.526 3.382 1.517 1.587 2.536 2.876 3.065 3.856.53.987.743 1.991.627 3.021-.114 1.03-.622 2.059-1.523 3.087-.816.934-1.882 1.616-3.197 2.038-1.315.421-2.692.475-4.135.15-1.445-.32-2.986-1.02-4.622-2.092-2.381-1.56-3.794-3.234-4.237-5.023-.446-1.786.008-3.669 1.349-5.65zm52.33 32.291-4.015 1.646c-.91-1.025-1.664-2.223-2.259-3.592-1.234.297-2.428.395-3.569.296-1.142-.099-2.375-.434-3.704-1.008-2.63-1.134-4.239-2.632-4.829-4.488-.46-1.433-.314-2.795.43-4.086.677-1.176 1.69-2.059 3.043-2.646 1.346-.59 3.027-.88 5.034-.876-.297-1.054-.435-1.996-.412-2.827.019-.833.203-1.546.549-2.147.638-1.108 1.692-1.829 3.161-2.158 1.463-.332 3.149-.089 5.04.727 1.822.786 3.016 1.807 3.58 3.056.564 1.254.51 2.459-.165 3.627-.426.741-1.082 1.336-1.972 1.781-.89.447-2.344.761-4.363.938l.958 4.643c.649-.38 1.345-.946 2.086-1.69l3.263 2.295c-1.01.968-1.808 1.657-2.378 2.06a8.506 8.506 0 0 1-1.62.934c.242.563.597 1.216 1.063 1.965.465.748.826 1.266 1.08 1.55zm-5.29-14.73 1.508-.26c1.114-.195 1.823-.56 2.13-1.093.26-.45.288-.918.081-1.4-.2-.485-.63-.868-1.291-1.153-.64-.276-1.223-.353-1.747-.233-.522.126-.89.372-1.101.738-.25.435-.247 1.09.008 1.972l.412 1.428zm-3.784 3.133c-1.162.01-2.14.205-2.935.58-.79.378-1.36.866-1.702 1.463-.438.758-.51 1.504-.215 2.227.29.726.915 1.294 1.875 1.708.63.272 1.303.428 2.01.462.71.036 1.55-.048 2.53-.254l-1.563-6.186zm35.556 22.165 5.442-16.332-6.724-1.678 1.107-3.322 18.015 4.497-1.107 3.32-6.692-1.67-5.443 16.332-4.598-1.147zm17.743 4.056 4.556-20.071 9.863 1.677c2.479.421 4.24.91 5.28 1.46 1.048.551 1.8 1.344 2.264 2.38.465 1.039.567 2.148.297 3.334-.343 1.509-1.132 2.666-2.375 3.474-1.243.808-2.905 1.166-4.993 1.077.894.682 1.598 1.383 2.112 2.106.52.724 1.158 1.963 1.916 3.713l1.94 4.395-5.599-.95-2.362-4.954c-.851-1.761-1.454-2.882-1.81-3.365-.351-.477-.757-.837-1.22-1.071-.467-.235-1.24-.444-2.32-.628l-.948-.16-1.903 8.381-4.698-.798zm7.326-10.78 3.465.59c2.245.381 3.663.535 4.261.468.593-.069 1.1-.28 1.506-.629.409-.347.68-.825.817-1.427.154-.678.066-1.256-.255-1.747-.32-.486-.85-.848-1.581-1.084-.374-.112-1.506-.329-3.402-.65l-3.653-.622-1.158 5.102zm40.878 16.015-5.144-.3-1.673-4.765-9.459-.553-2.32 4.532-5.052-.296 10.749-19.872 5.045.295 7.854 20.96zm-8.096-8.605-2.688-7.745-3.773 7.368 6.46.377zm17.75 8.715-9.103-20.245 5.17-.123 6.482 14.992 5.276-15.272 5.082-.12-7.755 20.646-5.152.122zm19.468-.63L266.1 352.05l17.396-1.616.427 3.437-12.637 1.173.56 4.516 11.751-1.09.425 3.436-11.749 1.092.684 5.51 13.095-1.217.426 3.437-17.855 1.66zm25.464-2.697-4.704-19.87 4.688-.832 3.904 16.484 11.608-2.059.802 3.387-16.298 2.89zm58.004-14.856-4.796 1.636-3.873-3.684-8.818 3.01.147 4.955-4.709 1.607-.132-21.942 4.702-1.605 17.479 16.023zm-11.576-4.772-6.265-6 .24 8.056 6.025-2.056zm23.157-8.394-1.74-3.11 9.242-3.871 4.108 7.345c-.473 1.135-1.403 2.345-2.787 3.639a15.806 15.806 0 0 1-4.705 3.033c-2.224.931-4.385 1.34-6.491 1.222-2.103-.12-3.996-.76-5.668-1.916a12.971 12.971 0 0 1-3.998-4.393c-1.073-1.92-1.561-3.821-1.472-5.704.096-1.882.812-3.599 2.153-5.145 1.025-1.186 2.55-2.199 4.578-3.05 2.64-1.105 4.974-1.49 6.997-1.152 2.018.344 3.716 1.269 5.09 2.788l-3.89 2.485a5.252 5.252 0 0 0-2.89-1.439c-1.113-.179-2.29-.009-3.528.51-1.872.784-3.075 1.922-3.601 3.418-.527 1.495-.225 3.258.907 5.285 1.225 2.19 2.702 3.597 4.432 4.221 1.736.622 3.508.556 5.327-.205a8.184 8.184 0 0 0 2.44-1.59c.737-.682 1.3-1.38 1.706-2.088l-1.306-2.336-4.904 2.053zm19.625-.982-13.246-16.941 14.491-8.485 2.237 2.862-10.524 6.164 2.942 3.763 9.786-5.732 2.239 2.863-9.787 5.731 3.588 4.59 10.909-6.387 2.237 2.863-14.872 8.709zm20.889-12.687-15.042-15.777 3.574-2.551 17.582 5.215-10.08-10.573 3.412-2.436 15.042 15.778-3.688 2.632-17.276-5.096 9.887 10.372-3.411 2.436zm24.336-30.422 4.18-2.1c1.428 1.981 2.04 3.868 1.85 5.66-.198 1.789-1.153 3.489-2.876 5.1-2.135 1.994-4.674 3.002-7.626 3.027-2.944.02-5.785-1.061-8.518-3.25-2.887-2.313-4.44-4.758-4.66-7.329-.219-2.57.798-4.908 3.048-7.011 1.966-1.838 4.192-2.825 6.673-2.966 1.475-.09 3.087.255 4.846 1.028l-2.384 3.658c-1.086-.54-2.193-.74-3.315-.594-1.126.148-2.116.627-2.976 1.43-1.193 1.116-1.7 2.389-1.517 3.822.178 1.432 1.302 2.975 3.367 4.631 2.19 1.753 4.117 2.662 5.775 2.725 1.665.062 3.08-.454 4.249-1.547.863-.807 1.314-1.738 1.339-2.795.027-1.054-.453-2.217-1.455-3.489zm13.822-3.103-18.978-12.19 2.852-3.327 18.979 12.19-2.853 3.327zm7.695-8.916-20.306-10.466 8.952-13.009 3.431 1.769-6.502 9.45 4.51 2.323 6.046-8.786 3.43 1.769-6.046 8.786 5.503 2.837 6.738-9.794 3.432 1.77-9.188 13.351zm4.991-21.072 1.542-3.822c1.53.349 2.799.323 3.822-.08 1.023-.402 1.838-1.172 2.446-2.308.645-1.2.837-2.226.576-3.07-.264-.846-.787-1.43-1.575-1.747a2.484 2.484 0 0 0-1.504-.137c-.49.112-1.042.437-1.644.971-.413.366-1.255 1.234-2.54 2.607-1.652 1.768-3.114 2.885-4.39 3.353-1.792.66-3.538.646-5.239-.037-1.093-.44-1.977-1.12-2.645-2.035-.666-.919-.976-1.979-.935-3.185.041-1.207.44-2.517 1.206-3.94 1.244-2.32 2.778-3.83 4.598-4.521 1.822-.694 3.738-.67 5.762.07l-1.868 3.817c-1.192-.285-2.169-.263-2.934.065-.764.327-1.43 1.015-1.992 2.06-.58 1.08-.774 2.03-.582 2.847.124.528.461.905 1.02 1.13.508.204 1.043.193 1.601-.033.716-.284 1.81-1.236 3.284-2.854 1.471-1.62 2.712-2.753 3.706-3.409a7.215 7.215 0 0 1 3.279-1.169c1.187-.121 2.457.09 3.81.634 1.226.493 2.22 1.25 2.977 2.273a5.26 5.26 0 0 1 1.045 3.465c-.056 1.29-.52 2.742-1.385 4.352-1.259 2.345-2.848 3.894-4.775 4.648-1.923.755-4.145.77-6.666.055z"/></g></svg>