<svg width="16" height="16" viewBox="0 0 16 16" fill="none" xmlns="http://www.w3.org/2000/svg">
<path fill-rule="evenodd" clip-rule="evenodd" d="M5 1C4.44772 1 4 1.44772 4 2V7H8C8.1906 7 8.37497 7.02666 8.54958 7.07646L9 5.5H7.5L6.5 6.5H5.5L6.5 5L5.5 3.5H6.5L7.5 4.5H9L8 1H5ZM8.5 1L11 4.5H13.5C13.7761 4.5 14 4.72386 14 5C14 5.27614 13.7761 5.5 13.5 5.5H11L9.46925 7.64304C9.7987 7.99958 10 8.47628 10 9H12L12.5 10L12 11V14C12 14.5523 12.4477 15 13 15C13.5523 15 14 14.5523 14 14V11L13.5 10L14 9C14.5523 9 15 8.55228 15 8V2C15 1.44772 14.5523 1 14 1H8.5ZM8.3716 7.6994C8.10815 7.57165 7.81244 7.5 7.5 7.5H4.5C3.39543 7.5 2.5 8.39543 2.5 9.5H1.85355C1.65829 9.5 1.5 9.65829 1.5 9.85355C1.5 9.94732 1.53725 10.0372 1.60355 10.1036L2 10.5C1.44772 10.5 1 10.9477 1 11.5V13C1 13.5523 1.44772 14 2 14V14.25C2 14.6642 2.33579 15 2.75 15C3.16421 15 3.5 14.6642 3.5 14.25V14H8.5V14.25C8.5 14.6642 8.83579 15 9.25 15C9.66421 15 10 14.6642 10 14.25V14C10.5523 14 11 13.5523 11 13V11.5C11 10.9477 10.5523 10.5 10 10.5L10.3964 10.1036C10.4628 10.0372 10.5 9.94732 10.5 9.85355C10.5 9.65829 10.3417 9.5 10.1464 9.5H9.5C9.5 9.01925 9.33038 8.57812 9.04772 8.23319L8.61618 8.83734C8.67265 8.95207 8.71511 9.07556 8.74117 9.20583L8.88039 9.90194C8.94227 10.2113 8.70562 10.5 8.3901 10.5H3.6099C3.29438 10.5 3.05773 10.2113 3.11961 9.90194L3.25884 9.20583C3.39906 8.50469 4.01468 8 4.72971 8H7.27029C7.61576 8 7.93802 8.11781 8.19467 8.31867L8.3716 7.6994ZM3 12C2.72386 12 2.5 12.2239 2.5 12.5C2.5 12.7761 2.72386 13 3 13H4C4.27614 13 4.5 12.7761 4.5 12.5C4.5 12.2239 4.27614 12 4 12H3ZM7.5 12.5C7.5 12.2239 7.72386 12 8 12H9C9.27614 12 9.5 12.2239 9.5 12.5C9.5 12.7761 9.27614 13 9 13H8C7.72386 13 7.5 12.7761 7.5 12.5Z" fill="#6DD3CE"></path>
</svg>