<svg xmlns="http://www.w3.org/2000/svg" width="24" height="24" viewBox="0 0 24 24"><g fill="none" fill-rule="evenodd"><path d="M0 0h24v24H0z"/><path stroke="#0770cd" stroke-linecap="round" stroke-width="2" d="M20 21H5a2 2 0 0 1-2-2V7a2 2 0 0 1 2-2h14a2 2 0 0 1 2 2v3"/><path stroke="#0770cd" stroke-linecap="round" stroke-linejoin="round" stroke-width="2" d="M7 3v3m10-3v3"/><path stroke="#0770cd" stroke-linecap="round" stroke-width="2" d="M3 9h13"/><circle cx="7" cy="13" r="1" fill="#0770cd"/><circle cx="12" cy="18" r="1" fill="#0770cd"/><circle cx="7" cy="18" r="1" fill="#0770cd"/><circle cx="12" cy="13" r="2" fill="#0770cd"/><path stroke="#0770cd" stroke-linecap="round" stroke-width="2" d="M16 18h4.5a2.5 2.5 0 0 0 2.5-2.5h0a2.5 2.5 0 0 0-2.5-2.5H17"/><path stroke="#0770cd" stroke-linecap="round" stroke-linejoin="round" stroke-width="2" d="m18 11-2 2 2 2"/></g></svg>