<svg id="Icon" xmlns="http://www.w3.org/2000/svg" width="16" height="16" viewBox="0 0 16 16"><defs><style>.cls-1{fill:#235d9b;}</style></defs><path class="cls-1" d="M9.431,10.7512V10.566a.3033.3033,0,0,0-.0675-.1867l-.1-.12q-.03.3651-.0453.7663a.2862.2862,0,0,0,.1276-.07A.29.29,0,0,0,9.431,10.7512Z"/><path class="cls-1" d="M10.2677,6.2625A8.8476,8.8476,0,0,0,9.315,9.7247l.3455.4141a.6907.6907,0,0,1,.1526.4272v.1852a.666.666,0,0,1-.6056.6659,23.6154,23.6154,0,0,0,.1635,3.1443l1.5673-.0021s-1.1048-5.4748.14-8.0884C11.5191,5.5455,10.2677,6.2625,10.2677,6.2625Z"/><path class="cls-1" d="M6.6146,7.0844A.2962.2962,0,0,0,6.39,6.9793H3.7591a.2908.2908,0,0,0-.2228.1051L.7874,10.3793A.2935.2935,0,0,0,.72,10.566v.1852a.29.29,0,0,0,.29.29H1.881l.0015,3.1851a.2905.2905,0,0,0,.29.29H3.3339a.29.29,0,0,0,.29-.29V12.4849a.2905.2905,0,0,1,.29-.29H5.0755a.29.29,0,0,1,.29.29v1.7494a.29.29,0,0,0,.29.29H7.98a.2887.2887,0,0,0,.2886-.29V11.0414h.8723a.29.29,0,0,0,.29-.29V10.566a.3033.3033,0,0,0-.0675-.1867Zm1.0732,5.4084a.29.29,0,0,1-.29.29H6.2365a.29.29,0,0,1-.29-.29V11.3317a.29.29,0,0,1,.29-.29H7.3976a.29.29,0,0,1,.29.29Z"/><path class="cls-1" d="M2.114,6.9745h.599a.2843.2843,0,0,1,.2843.2843V9.8272a0,0,0,0,1,0,0H1.83a0,0,0,0,1,0,0V7.2588A.2843.2843,0,0,1,2.114,6.9745Z"/><path class="cls-1" d="M6.7933,3.6047a3.9929,3.9929,0,0,1,3.9056,2.9865.1407.1407,0,0,1-.2174.1587L6.712,3.855A.1393.1393,0,0,1,6.7933,3.6047Z"/><path class="cls-1" d="M8.6722,2.1752a3.9932,3.9932,0,0,1,2.0323,4.477.1407.1407,0,0,1-.2666.0372L8.4824,2.3574A.1392.1392,0,0,1,8.6722,2.1752Z"/><path class="cls-1" d="M5.7458,5.8533a3.9931,3.9931,0,0,1,4.8648.7122.1408.1408,0,0,1-.1129.2444L5.7964,6.1115A.1392.1392,0,0,1,5.7458,5.8533Z"/><path class="cls-1" d="M15.2931,5.8417a3.993,3.993,0,0,0-4.8735.65.1407.1407,0,0,0,.11.2458l4.71-.6378A.1393.1393,0,0,0,15.2931,5.8417Z"/><path class="cls-1" d="M14.3914,3.7032a3.993,3.993,0,0,0-3.989,2.8741.1407.1407,0,0,0,.2128.1648l3.85-2.7864A.1393.1393,0,0,0,14.3914,3.7032Z"/><path class="cls-1" d="M15.102,8.3493a3.9931,3.9931,0,0,0-4.575-1.8.1408.1408,0,0,0-.0236.2682L14.93,8.5483A.1393.1393,0,0,0,15.102,8.3493Z"/><path class="cls-1" d="M3.4264,5.1553A1.4315,1.4315,0,1,0,1.9949,3.7238,1.4315,1.4315,0,0,0,3.4264,5.1553Z"/><path class="cls-1" d="M3.3423,1.1323l-.36.6229a.0925.0925,0,0,0,.08.1387H3.782a.0924.0924,0,0,0,.08-.1387l-.36-.6229A.0925.0925,0,0,0,3.3423,1.1323Z"/><path class="cls-1" d="M3.5024,6.3191l.36-.6229a.0924.0924,0,0,0-.08-.1387H3.0627a.0925.0925,0,0,0-.08.1387l.36.6229A.0924.0924,0,0,0,3.5024,6.3191Z"/><path class="cls-1" d="M1.5319,1.9485l.1862.6948a.0924.0924,0,0,0,.1546.0414l.5087-.5086A.0924.0924,0,0,0,2.34,2.0215l-.6948-.1862A.0924.0924,0,0,0,1.5319,1.9485Z"/><path class="cls-1" d="M5.3128,5.5029l-.1862-.6948a.0925.0925,0,0,0-.1547-.0414l-.5086.5086a.0925.0925,0,0,0,.0414.1547L5.2,5.6162A.0925.0925,0,0,0,5.3128,5.5029Z"/><path class="cls-1" d="M.8289,3.8058l.623.36a.0924.0924,0,0,0,.1386-.08V3.3661a.0924.0924,0,0,0-.1386-.08l-.623.36A.0925.0925,0,0,0,.8289,3.8058Z"/><path class="cls-1" d="M6.0158,3.6457l-.623-.36a.0925.0925,0,0,0-.1387.08v.7193a.0925.0925,0,0,0,.1387.08l.623-.36A.0925.0925,0,0,0,6.0158,3.6457Z"/><path class="cls-1" d="M1.6451,5.6162,2.34,5.43a.0925.0925,0,0,0,.0415-.1547l-.5087-.5086a.0924.0924,0,0,0-.1546.0414l-.1862.6948A.0925.0925,0,0,0,1.6451,5.6162Z"/><path class="cls-1" d="M5.2,1.8353l-.6949.1862a.0924.0924,0,0,0-.0414.1546l.5086.5086a.0924.0924,0,0,0,.1547-.0414l.1862-.6948A.0924.0924,0,0,0,5.2,1.8353Z"/></svg>