<svg width="16" height="16" viewBox="0 0 16 16" fill="none" xmlns="http://www.w3.org/2000/svg">
<path fill-rule="evenodd" clip-rule="evenodd" d="M6.50015 1C4.01487 1 2.00015 3.01472 2.00015 5.5V6.09971C2.75022 5.71628 3.59993 5.5 4.50015 5.5C6.07618 5.5 7.49738 6.16289 8.50015 7.22506V6.94139C8.50015 6.68923 8.68792 6.47653 8.93813 6.44525L11.9381 6.07025C12.2366 6.03295 12.5002 6.26564 12.5002 6.56639V8.05861C12.5002 8.31077 12.3124 8.52347 12.0622 8.55475L9.57089 8.86616C9.84734 9.5223 10.0002 10.2433 10.0002 11C10.0002 11.9476 9.7605 12.8392 9.33851 13.6176L11.453 13.0135L12.1895 13.75H9.26435C8.9326 14.3235 8.50026 14.8315 7.99146 15.25H14.0002C14.3035 15.25 14.577 15.0673 14.6931 14.787C14.8092 14.5068 14.745 14.1842 14.5305 13.9697L13.1029 12.5421L14.2678 12.2092C14.7013 12.0854 15.0002 11.6892 15.0002 11.2384C15.0002 11.0816 14.9637 10.927 14.8936 10.7868L14.0002 9V5.5C14.0002 3.01472 11.9854 1 9.50015 1H6.50015ZM7.00015 3C6.44787 3 6.00015 3.44772 6.00015 4C6.00015 4.55228 6.44787 5 7.00015 5H9.00015C9.55244 5 10.0002 4.55228 10.0002 4C10.0002 3.44772 9.55244 3 9.00015 3H7.00015ZM10.5002 10C10.224 10 10.0002 10.2239 10.0002 10.5C10.0002 10.7761 10.224 11 10.5002 11H11.5002C11.7763 11 12.0002 10.7761 12.0002 10.5C12.0002 10.2239 11.7763 10 11.5002 10H10.5002ZM4.5 6.5C4.331 6.5 4.16417 6.50932 4 6.52746C1.91419 6.75804 0.258039 8.41419 0.0274644 10.5C0.00931665 10.6642 0 10.831 0 11C0 11.169 0.00931665 11.3358 0.0274644 11.5C0.258039 13.5858 1.91419 15.242 4 15.4725C4.16417 15.4907 4.331 15.5 4.5 15.5C4.669 15.5 4.83583 15.4907 5 15.4725C7.08581 15.242 8.74196 13.5858 8.97254 11.5C8.99068 11.3358 9 11.169 9 11C9 10.831 8.99068 10.6642 8.97254 10.5C8.74196 8.41419 7.08581 6.75804 5 6.52746C4.83583 6.50932 4.669 6.5 4.5 6.5ZM7.96456 11.5C7.81771 12.5266 7.22532 13.4096 6.38954 13.9466C6.71282 13.2756 6.92759 12.4305 6.98474 11.5H7.96456ZM5.39361 13.6963C5.69412 13.1554 5.92006 12.3915 5.98261 11.5H5V14.2361C5.12321 14.115 5.25729 13.9417 5.39361 13.6963ZM7.96456 10.5H6.98474C6.92759 9.56947 6.71282 8.72445 6.38954 8.05337C7.22532 8.59043 7.81771 9.47335 7.96456 10.5ZM5.39361 8.30366C5.25729 8.05828 5.12321 7.88502 5 7.7639V10.5H5.98261C5.92006 9.60849 5.69412 8.84458 5.39361 8.30366ZM1.03544 10.5C1.18229 9.47335 1.77468 8.59043 2.61046 8.05337C2.28718 8.72445 2.07241 9.56947 2.01526 10.5H1.03544ZM3.60639 8.30366C3.30588 8.84458 3.07994 9.60849 3.01739 10.5H4V7.7639C3.87679 7.88502 3.74272 8.05828 3.60639 8.30366ZM4 11.5H3.01739C3.07994 12.3915 3.30588 13.1554 3.60639 13.6963C3.74272 13.9417 3.87679 14.115 4 14.2361V11.5ZM2.61046 13.9466C2.28718 13.2756 2.07241 12.4305 2.01526 11.5H1.03544C1.18229 12.5266 1.77468 13.4096 2.61046 13.9466Z" fill="#FCA000"></path>
</svg>