<svg xmlns="http://www.w3.org/2000/svg" width="24" height="24" viewBox="0 0 24 24"><g fill="none" fill-rule="evenodd"><path d="M0 0h24v24H0z"/><path stroke="#0770cd" stroke-linecap="round" stroke-linejoin="round" stroke-width="2" d="M5 18H2h0a5 5 0 0 1 5-5h0m12 5h3a5 5 0 0 0-5-5h0"/><path stroke="#0770cd" stroke-width="2" d="M5 7h1a1 1 0 0 1 1 1v1.5a1.5 1.5 0 0 1-3 0V8a1 1 0 0 1 1-1zm13 0h1a1 1 0 0 1 1 1v1.5a1.5 1.5 0 0 1-3 0V8a1 1 0 0 1 1-1z"/><path stroke="#0770cd" stroke-linecap="round" stroke-linejoin="round" stroke-width="2" d="M7 20h10v-1h0a5 5 0 0 0-5-5h0a5 5 0 0 0-5 5v1z"/><path stroke="#0770cd" stroke-width="2" d="M11 5h2a2 2 0 0 1 2 2v2a3 3 0 0 1-6 0V7a2 2 0 0 1 2-2z"/></g></svg>