<svg width="16" height="16" viewBox="0 0 16 16" fill="none" xmlns="http://www.w3.org/2000/svg">
<path d="M11 6H14C14.5523 6 15 5.55228 15 5C15 4.44772 14.5523 4 14 4H11L8 0H7L8.5 4L5.5 4.5L4 3H3L4 5L3 7H4L5.5 5.5L8.5 6L7 10H8L11 6Z" fill="#931682"></path>
<path fill-rule="evenodd" clip-rule="evenodd" d="M1 6V15H3V14.5C3 13.9477 3.44772 13.5 4 13.5C4.55228 13.5 5 13.9477 5 14.5V15H13V10C13 9.44772 12.5523 9 12 9H7V5H2C1.44772 5 1 5.44772 1 6ZM2 7H3V8H2V7ZM6 7H5V8H6V7ZM2 9H3V10H2V9ZM6 9H5V10H6V9ZM2 11H3V12H2V11ZM6 11H5V12H6V11ZM8 10H9V11H8V10ZM12 10H11V11H12V10ZM8 12H9V13H8V12ZM12 12H11V13H12V12Z" fill="#931682"></path>
</svg>