<svg width="16" height="16" viewBox="0 0 16 16" fill="none" xmlns="http://www.w3.org/2000/svg">
<path d="M1 7.5C1 6.67157 1.67157 6 2.5 6C3.32843 6 4 6.67157 4 7.5V13.5C4 14.3284 3.32843 15 2.5 15C1.67157 15 1 14.3284 1 13.5V7.5Z" fill="#073E68"></path>
<path d="M12 2.5C12 1.67157 12.6716 1 13.5 1C14.3284 1 15 1.67157 15 2.5V13.5C15 14.3284 14.3284 15 13.5 15C12.6716 15 12 14.3284 12 13.5V2.5Z" fill="#073E68"></path>
<path d="M6.5 5C6.5 4.17157 7.17157 3.5 8 3.5C8.82843 3.5 9.5 4.17157 9.5 5V13.5C9.5 14.3284 8.82843 15 8 15C7.17157 15 6.5 14.3284 6.5 13.5V5Z" fill="#073E68"></path>
</svg>