<svg width="16" height="16" viewBox="0 0 16 16" fill="none" xmlns="http://www.w3.org/2000/svg">
<path d="M2.5 5H2C1.44772 5 1 5.44772 1 6V7C1 7.55228 1.44772 8 2 8H2.5V5Z" fill="#20BF55"></path>
<path d="M13.5 8V5H14C14.5523 5 15 5.44772 15 6V7C15 7.55228 14.5523 8 14 8H13.5Z" fill="#20BF55"></path>
<path d="M5.5 14V14.25C5.5 14.9404 4.94036 15.5 4.25 15.5C3.55964 15.5 3 14.9404 3 14.25V13.5H13V14.25C13 14.9404 12.4404 15.5 11.75 15.5C11.0596 15.5 10.5 14.9404 10.5 14.25V14H5.5Z" fill="#20BF55"></path>
<path fill-rule="evenodd" clip-rule="evenodd" d="M14 4C14 2.34315 12.6569 1 11 1H5C3.34315 1 2 2.34315 2 4V13C2 13.5523 2.44772 14 3 14H13C13.5523 14 14 13.5523 14 13V4ZM4 5C3.44772 5 3 5.44772 3 6V9C3 9.55229 3.44772 10 4 10H12C12.5523 10 13 9.55229 13 9V6C13 5.44772 12.5523 5 12 5H4ZM6.5 4C6.22386 4 6 3.77614 6 3.5C6 3.22386 6.22386 3 6.5 3H9.5C9.77614 3 10 3.22386 10 3.5C10 3.77614 9.77614 4 9.5 4H6.5ZM3 12.5C3 12.2239 3.22386 12 3.5 12H5C5.27614 12 5.5 12.2239 5.5 12.5C5.5 12.7761 5.27614 13 5 13H3.5C3.22386 13 3 12.7761 3 12.5ZM11 13C10.7239 13 10.5 12.7761 10.5 12.5C10.5 12.2239 10.7239 12 11 12H12.5C12.7761 12 13 12.2239 13 12.5C13 12.7761 12.7761 13 12.5 13H11Z" fill="#20BF55"></path>
</svg>