<svg width="16" height="16" viewBox="0 0 16 16" fill="none" xmlns="http://www.w3.org/2000/svg">
<path fill-rule="evenodd" clip-rule="evenodd" d="M6.5 1C4.01472 1 2 3.01472 2 5.5V9L1.1066 10.7868C1.0365 10.927 1 11.0816 1 11.2384C1 11.6892 1.29886 12.0854 1.73233 12.2092L2.89728 12.5421L1.46969 13.9697C1.25519 14.1842 1.19103 14.5068 1.30711 14.787C1.4232 15.0673 1.69668 15.25 2.00002 15.25H14C14.3034 15.25 14.5768 15.0673 14.6929 14.787C14.809 14.5068 14.7449 14.1842 14.5304 13.9697L13.1028 12.5421L14.2677 12.2092C14.7011 12.0854 15 11.6892 15 11.2384C15 11.0816 14.9635 10.927 14.8934 10.7868L14 9V5.5C14 3.01472 11.9853 1 9.5 1H6.5ZM11.4528 13.0135L8.875 13.75H12.1894L11.4528 13.0135ZM7.125 13.75L4.5472 13.0135L3.81068 13.75H7.125ZM7 3C6.44772 3 6 3.44772 6 4C6 4.55228 6.44772 5 7 5H9C9.55229 5 10 4.55228 10 4C10 3.44772 9.55229 3 9 3H7ZM4 10.5C4 10.2239 4.22386 10 4.5 10H5.5C5.77614 10 6 10.2239 6 10.5C6 10.7761 5.77614 11 5.5 11H4.5C4.22386 11 4 10.7761 4 10.5ZM10.5 10C10.2239 10 10 10.2239 10 10.5C10 10.7761 10.2239 11 10.5 11H11.5C11.7761 11 12 10.7761 12 10.5C12 10.2239 11.7761 10 11.5 10H10.5ZM7.5 6.94139V8.43361C7.5 8.73436 7.23641 8.96705 6.93798 8.92975L3.93798 8.55475C3.68777 8.52347 3.5 8.31077 3.5 8.05861V6.56639C3.5 6.26564 3.76359 6.03295 4.06202 6.07025L7.06202 6.44525C7.31223 6.47653 7.5 6.68923 7.5 6.94139ZM8.5 8.43361V6.94139C8.5 6.68923 8.68777 6.47653 8.93798 6.44525L11.938 6.07025C12.2364 6.03295 12.5 6.26564 12.5 6.56639V8.05861C12.5 8.31077 12.3122 8.52347 12.062 8.55475L9.06202 8.92975C8.76359 8.96705 8.5 8.73436 8.5 8.43361Z" fill="#FCA000"></path>
</svg>